<?xml version="1.0" encoding="UTF-8" standalone="no"?>
<!-- Created with Inkscape (http://www.inkscape.org/) -->

<svg
   width="86.87677mm"
   height="24.05599mm"
   viewBox="0 0 86.87677 24.05599"
   version="1.1"
   id="svg1"
   xml:space="preserve"
   inkscape:version="1.4.2 (f4327f4, 2025-05-13)"
   sodipodi:docname="osbc_white.svg"
   xmlns:inkscape="http://www.inkscape.org/namespaces/inkscape"
   xmlns:sodipodi="http://sodipodi.sourceforge.net/DTD/sodipodi-0.dtd"
   xmlns="http://www.w3.org/2000/svg"
   xmlns:svg="http://www.w3.org/2000/svg"><sodipodi:namedview
     id="namedview1"
     pagecolor="#b8b8b8"
     bordercolor="#000000"
     borderopacity="0.25"
     inkscape:showpageshadow="2"
     inkscape:pageopacity="0.0"
     inkscape:pagecheckerboard="0"
     inkscape:deskcolor="#d1d1d1"
     inkscape:document-units="mm"
     inkscape:zoom="0.71891835"
     inkscape:cx="164.83096"
     inkscape:cy="-48.684249"
     inkscape:window-width="975"
     inkscape:window-height="1032"
     inkscape:window-x="1939"
     inkscape:window-y="281"
     inkscape:window-maximized="0"
     inkscape:current-layer="layer1" /><defs
     id="defs1" /><g
     inkscape:label="Layer 1"
     inkscape:groupmode="layer"
     id="layer1"
     transform="translate(-61.327273,-161.05417)"><g
       id="g1"
       transform="translate(-1.7100376e-8,24.657993)"
       style="fill:#ffffff;fill-opacity:1"><path
         style="fill:#ffffff;fill-opacity:1"
         d="m 72.326501,160.39555 0.148167,-0.0387 0.148167,0.0387 0.148166,0.0387 h -0.296333 -0.296333 z m 2.626278,-3.1e-4 0.149778,-0.039 0.104222,0.0422 0.104222,0.0422 -0.254,-0.003 -0.254,-0.003 z m 19.726887,-0.002 0.233997,-0.0354 0.189336,0.0365 0.189336,0.0365 -0.423334,-10e-4 -0.423333,-0.001 z m 1.395835,0.001 0.1905,-0.0367 0.1905,0.0367 0.1905,0.0367 h -0.381 -0.381 z m -24.468666,-0.081 0.105833,-0.0427 0.105833,0.0427 0.105834,0.0427 h -0.211667 -0.211667 z m 4.153958,-0.002 0.111125,-0.0445 0.05115,0.0512 0.05115,0.0512 -0.162278,-0.007 -0.162278,-0.007 z m 18.034,0 0.111125,-0.0445 0.05115,0.0512 0.05115,0.0512 -0.162278,-0.007 -0.162278,-0.007 z m 3.296708,0.002 0.105834,-0.0427 0.105833,0.0427 0.105833,0.0427 h -0.211666 -0.211667 z m -25.987375,-0.0864 0.111125,-0.0445 0.05115,0.0512 0.05115,0.0512 -0.162278,-0.007 -0.162278,-0.007 z m 5.164667,0 0.111125,-0.0445 0.05115,0.0512 0.05115,0.0512 -0.162278,-0.007 -0.162278,-0.007 z m 21.420667,0 0.111125,-0.0445 0.05115,0.0512 0.05115,0.0512 -0.162277,-0.007 -0.162278,-0.007 z m -4.910667,-0.0847 0.111125,-0.0445 0.05115,0.0512 0.05115,0.0512 -0.162278,-0.007 -0.162278,-0.007 z m 9.117537,-1.80483 0.15325,-0.16933 h 0.0423 0.0423 l -0.15325,0.16933 -0.15324,0.16933 h -0.0423 -0.0423 z m 0.67734,-0.67733 0.15324,-0.16934 h 0.0423 0.0423 l -0.15325,0.16934 -0.15324,0.16933 h -0.0423 -0.0423 z m -15.286893,-0.23284 -0.291776,-0.3175 0.3175,0.29178 0.3175,0.29177 v 0.0257 0.0257 h -0.02572 -0.02572 z m -22.603888,-0.508 -0.547888,-0.5715 0.5715,0.54789 0.5715,0.54789 v 0.0236 0.0236 h -0.02361 -0.02361 z m 18.121112,0.0212 0.198851,-0.21167 h 0.04233 0.04233 l -0.198851,0.21167 -0.19885,0.21167 h -0.04233 -0.04233 z m 0.592667,-0.66697 v -0.032 l 0.148167,-0.1162 0.148166,-0.1162 -0.1162,0.14816 -0.1162,0.14817 h -0.03197 -0.03197 z m -19.5688,-0.28553 -0.1162,-0.14817 0.148167,0.1162 0.148166,0.1162 v 0.032 0.032 h -0.03197 -0.03197 z m 31.400967,-0.16783 0.359833,-0.0324 0.359833,0.0324 0.359834,0.0324 h -0.719667 -0.719667 z m -0.756709,-0.0805 0.111125,-0.0445 0.05115,0.0512 0.05115,0.0511 -0.162278,-0.007 -0.162278,-0.007 z m 2.116667,0 0.111125,-0.0445 0.05115,0.0512 0.05115,0.0511 -0.162278,-0.007 -0.162278,-0.007 z m -7.09816,-1.1478 1.140965,-1.16331 0.404202,0.39813 0.404201,0.39812 v 0.0444 0.0444 l -0.401042,-0.40105 -0.401042,-0.40104 -1.144124,1.12182 -1.144125,1.12183 z m -15.978798,0.80633 0.232833,-0.0353 0.232833,0.0353 0.232834,0.0353 h -0.465667 -0.465667 z m -0.883709,-0.0819 0.111125,-0.0445 0.05115,0.0511 0.05115,0.0512 -0.162278,-0.007 -0.162278,-0.007 z m 2.116667,0 0.111125,-0.0445 0.05115,0.0511 0.05115,0.0512 -0.162278,-0.007 -0.162278,-0.007 z m -5.487458,-1.67783 -0.373924,-0.381 h 0.04233 0.04233 l 0.373923,0.381 0.373924,0.381 h -0.04233 -0.04233 z m 29.404705,-0.21167 v -0.46566 l 0.03527,0.23283 0.03527,0.23283 -0.03527,0.23284 -0.03527,0.23283 z m 5.58227,0.16934 v -0.29634 l 0.0387,0.14817 0.0387,0.14817 -0.0387,0.14816 -0.0387,0.14817 z m -0.003,-1.48167 0.003,-0.254 0.039,0.14978 0.039,0.14978 -0.0422,0.10422 -0.0422,0.10422 z m -42.766485,-1.61572 0.0067,-0.16228 0.04447,0.11113 0.04447,0.11112 -0.05115,0.0511 -0.05115,0.0512 z m 24.553334,-0.254 0.0067,-0.16228 0.04447,0.11113 0.04447,0.11112 -0.05115,0.0512 -0.05115,0.0512 z m -24.628179,-0.41628 0.0031,-0.254 0.03903,0.14978 0.03903,0.14978 -0.04217,0.10422 -0.04217,0.10422 z m 5.92353,-0.29633 v -0.21167 l 0.0427,0.10583 0.0427,0.10584 -0.0427,0.10583 -0.0427,0.10583 z m 18.802274,-0.0847 v -0.29633 l 0.03872,0.14816 0.03872,0.14817 -0.03872,0.14817 -0.03872,0.14816 z m -5.929804,-0.21167 0.0031,-0.254 0.03903,0.14978 0.03903,0.14978 -0.04217,0.10422 -0.04217,0.10422 z m 22.74803,-0.1905 -0.1162,-0.14816 0.14816,0.1162 0.14817,0.1162 v 0.032 0.032 h -0.032 -0.032 z m -41.616737,-0.6985 v -0.635 l 0.03321,0.3175 0.03321,0.3175 -0.03321,0.3175 -0.03321,0.3175 z m 5.923573,0 v -0.46566 l 0.03527,0.23283 0.03527,0.23283 -0.03527,0.23284 -0.03527,0.23283 z m 35.015834,0.0212 -0.11621,-0.14817 0.14817,0.1162 0.14817,0.1162 v 0.032 0.032 h -0.032 -0.032 z m -12.192005,-0.16933 -0.1162,-0.14817 0.148166,0.1162 0.148167,0.1162 v 0.032 0.032 h -0.03197 -0.03197 z m -9.881832,-0.6985 v -0.21167 l 0.04271,0.10583 0.0427,0.10584 -0.0427,0.10583 -0.04271,0.10583 z m 9.204499,0.0212 -0.116201,-0.14816 0.148167,0.1162 0.148167,0.1162 v 0.032 0.032 h -0.03197 -0.03197 z m -3.271558,-0.27516 v -0.29634 l 0.03872,0.14817 0.03872,0.14817 -0.03872,0.14816 -0.03872,0.14817 z m -18.808959,-0.0494 0.0067,-0.16228 0.04447,0.11113 0.04447,0.11112 -0.05115,0.0512 -0.05115,0.0512 z m -5.916845,-0.33161 0.0031,-0.254 0.03903,0.14978 0.03903,0.14977 -0.04217,0.10423 -0.04217,0.10422 z m 18.701512,-0.007 0.0067,-0.16228 0.04447,0.11113 0.04447,0.11112 -0.05115,0.0512 -0.05115,0.0512 z m -12.7,-0.16933 0.0067,-0.16228 0.04447,0.11113 0.04447,0.11112 -0.05115,0.0512 -0.05115,0.0512 z m 18.626667,-0.254 0.0067,-0.16228 0.04447,0.11113 0.04447,0.11112 -0.05115,0.0512 -0.05115,0.0512 z m -24.553334,-0.254 0.0067,-0.16228 0.04447,0.11113 0.04447,0.11112 -0.05115,0.0512 -0.05115,0.0512 z m 26.754667,-1.18533 0.0067,-0.16228 0.04447,0.11112 0.04447,0.11113 -0.05115,0.0512 -0.05115,0.0511 z m -0.07485,-0.58562 0.0031,-0.254 0.03903,0.14978 0.03903,0.14978 -0.04217,0.10422 -0.04217,0.10422 z m -9.674914,-0.9525 -0.205258,-0.23283 0.232833,0.20526 0.232833,0.20526 v 0.0276 0.0276 h -0.02757 -0.02757 z m -9.264592,-0.27516 0.153245,-0.16934 h 0.04233 0.04233 l -0.153245,0.16934 -0.153245,0.16933 h -0.04233 -0.04233 z m 8.797289,-0.1905 -0.161289,-0.1905 0.1905,0.16129 0.1905,0.16129 v 0.0292 0.0292 h -0.02921 -0.02921 z m 10.142217,-0.10584 0.0031,-0.254 0.03903,0.14978 0.03903,0.14978 -0.04217,0.10422 -0.04217,0.10422 z m 12.937498,-0.0847 0.19885,-0.21167 h 0.0423 0.0423 l -0.19885,0.21167 -0.19885,0.21166 h -0.0423 -0.0423 z m -7.359319,-0.007 0.0067,-0.16228 0.04447,0.11113 0.04447,0.11112 -0.05115,0.0512 -0.05115,0.0512 z m 0.501315,-0.92428 0.198851,-0.21166 h 0.04233 0.04233 l -0.198851,0.21166 -0.19885,0.21167 h -0.04233 -0.04233 z m 8.209134,-0.48683 0.37746,-0.40217 h 0.0247 0.0247 v 0.0247 0.0247 l -0.40217,0.37747 -0.40216,0.37746 z m -29.984342,0.13266 0.111125,-0.0445 0.05115,0.0512 0.05115,0.0512 -0.162278,-0.007 -0.162278,-0.007 z m 0.673029,-0.0867 0.191487,-0.0368 0.147179,0.0385 0.14718,0.0385 -0.338667,-0.002 -0.338666,-0.002 z m 0.930346,1.3e-4 0.1905,-0.0367 0.1905,0.0367 0.1905,0.0367 h -0.381 -0.381 z m 21.849292,-0.33675 0.111125,-0.0445 0.05115,0.0512 0.05115,0.0512 -0.162277,-0.007 -0.162278,-0.007 z m 1.693333,0 0.111125,-0.0445 0.05115,0.0512 0.05115,0.0512 -0.162278,-0.007 -0.162278,-0.007 z m -0.894292,-0.0852 0.148167,-0.0387 0.148167,0.0387 0.148166,0.0387 H 96.858803 96.56247 Z m -32.660166,-0.53431 0.153244,-0.16933 h 0.04233 0.04233 l -0.153245,0.16933 -0.153244,0.16934 h -0.04233 -0.04233 z m 18.835441,-0.5715 -0.462775,-0.48683 0.486834,0.46278 0.486833,0.46277 v 0.0241 0.0241 h -0.02406 -0.02406 z m 21.081359,-0.127 0.37746,-0.40216 h 0.0247 0.0247 v 0.0247 0.0247 l -0.40217,0.37746 -0.40216,0.37746 z m -38.816134,-0.40216 0.153245,-0.16934 h 0.04233 0.04233 l -0.153244,0.16934 -0.153245,0.16933 h -0.04233 -0.04233 z m 24.807334,-0.42334 0.330699,-0.33866 h 0.04233 0.04233 l -0.3307,0.33866 -0.330699,0.33867 H 89.6701 89.62777 Z m -19.192875,-2.25917 0.111125,-0.0445 0.05115,0.0512 0.05115,0.0512 -0.162278,-0.007 -0.162277,-0.007 z m 0.508,-0.0847 0.111125,-0.0445 0.05115,0.0512 0.05115,0.0511 -0.162278,-0.007 -0.162277,-0.007 z m 4.910666,0 0.111125,-0.0445 0.05115,0.0512 0.05115,0.0511 -0.162278,-0.007 -0.162278,-0.007 z m 18.711334,0 0.111125,-0.0445 0.05115,0.0512 0.05115,0.0511 -0.162277,-0.007 -0.162278,-0.007 z m 3.894666,0 0.111125,-0.0445 0.05115,0.0512 0.05115,0.0511 -0.162278,-0.007 -0.162278,-0.007 z m -27.013958,-0.0829 0.105833,-0.0427 0.105834,0.0427 0.105833,0.0427 H 71.882136 71.67047 Z m 3.725333,0 0.105834,-0.0427 0.105833,0.0427 0.105833,0.0427 H 75.60747 75.395803 Z m 19.981334,0 0.105833,-0.0427 0.105833,0.0427 0.105834,0.0427 h -0.211667 -0.211667 z m 2.624666,0 0.105834,-0.0427 0.105833,0.0427 0.105833,0.0427 H 98.21347 98.001803 Z m -25.357666,-0.0892 0.232833,-0.0353 0.232833,0.0353 0.232834,0.0353 h -0.465667 -0.465667 z m 1.524,0 0.232833,-0.0353 0.232833,0.0353 0.232834,0.0353 h -0.465667 -0.465667 z m 22.394333,-6.1e-4 0.275167,-0.0341 0.275166,0.0341 0.275167,0.0342 H 96.94347 96.393136 Z"
         id="path5" /><path
         style="fill:#ffffff;fill-opacity:1"
         d="m 138.15582,160.39404 0.19149,-0.0368 0.14718,0.0385 0.14718,0.0385 -0.33867,-0.002 -0.33866,-0.002 z m 2.032,0 0.19149,-0.0368 0.14718,0.0385 0.14718,0.0385 -0.33867,-0.002 -0.33866,-0.002 z m -2.87965,-0.0809 0.10583,-0.0427 0.10584,0.0427 0.10583,0.0427 h -0.21167 -0.21166 z m 3.81,0 0.10583,-0.0427 0.10584,0.0427 0.10583,0.0427 h -0.21167 -0.21166 z m -4.31271,-0.0864 0.11113,-0.0445 0.0511,0.0512 0.0512,0.0512 -0.16228,-0.007 -0.16227,-0.007 z m 4.91067,0 0.11112,-0.0445 0.0512,0.0512 0.0512,0.0512 -0.16228,-0.007 -0.16228,-0.007 z m -5.334,-0.0847 0.11112,-0.0445 0.0512,0.0512 0.0512,0.0512 -0.16228,-0.007 -0.16228,-0.007 z m 5.75733,0 0.11113,-0.0445 0.0512,0.0512 0.0512,0.0512 -0.16228,-0.007 -0.16227,-0.007 z m -32.1302,-0.34429 2.60959,-0.0237 2.55508,0.0237 2.55507,0.0237 -5.16467,-2e-5 -5.16466,-1e-5 z m 8.20819,-0.0799 0.14977,-0.039 0.10423,0.0422 0.10422,0.0422 -0.254,-0.003 -0.254,-0.003 z m 0.63868,-0.0838 0.11112,-0.0445 0.0511,0.0512 0.0512,0.0512 -0.16228,-0.007 -0.16228,-0.007 z m 27.78654,-1.49813 v -0.032 l 0.14817,-0.1162 0.14816,-0.1162 -0.1162,0.14817 -0.1162,0.14817 h -0.032 -0.032 z m -23.70667,-0.0847 v -0.032 l 0.14817,-0.1162 0.14816,-0.1162 -0.1162,0.14816 -0.1162,0.14817 h -0.032 -0.032 z m 24.638,-0.77236 0.54544,-0.55034 h 0.0423 0.0423 l -0.54544,0.55034 -0.54544,0.55033 h -0.0423 -0.0423 z m -16.64232,0.1905 -0.24868,-0.27517 0.27517,0.24867 0.27517,0.24868 v 0.0265 0.0265 h -0.0265 -0.0265 z m -7.14901,-0.2648 v -0.032 l 0.14816,-0.1162 0.14817,-0.1162 -0.1162,0.14817 -0.1162,0.14816 h -0.032 -0.032 z m 6.08959,-0.79354 -0.20526,-0.23283 0.23284,0.20526 0.23283,0.20526 v 0.0276 0.0276 h -0.0276 -0.0276 z m 17.23342,-0.71966 -0.50534,-0.52917 0.52916,0.50535 0.52917,0.50535 v 0.0238 0.0238 h -0.0238 -0.0238 z m -17.66114,0.21166 -0.1162,-0.14816 0.14816,0.1162 0.14817,0.1162 v 0.032 0.032 h -0.032 -0.032 z m -16.71482,-0.55126 -0.041,-0.10675 0.0225,-2.53908 0.0225,-2.53907 1.69333,-0.003 1.69333,-0.003 -1.67216,0.0258 -1.67217,0.0258 v 2.57872 2.57871 l 1.62983,0.0249 1.62984,0.0249 -1.63249,0.0192 -1.63249,0.0192 z m 26.69512,0.0507 0.10583,-0.0427 0.10583,0.0427 0.10584,0.0427 h -0.21167 -0.21167 z m -22.69067,-0.0847 0.10583,-0.0427 0.10583,0.0427 0.10584,0.0427 H 116.84 116.62833 Z m 21.75933,0 0.10584,-0.0427 0.10583,0.0427 0.10583,0.0427 h -0.21166 -0.21167 z m 1.86267,0 0.10583,-0.0427 0.10584,0.0427 0.10583,0.0427 h -0.21167 -0.21166 z m 0.51329,-0.0864 0.11113,-0.0445 0.0512,0.0512 0.0511,0.0512 -0.16228,-0.007 -0.16227,-0.007 z m 4.79689,-0.89466 -0.50535,-0.52917 0.52917,0.50535 0.52917,0.50535 v 0.0238 0.0238 h -0.0238 -0.0238 z m -20.607,0.0564 0.007,-0.16227 0.0445,0.11112 0.0445,0.11113 -0.0512,0.0512 -0.0511,0.0512 z m 10.31185,-0.43744 -0.1162,-0.14817 0.14817,0.1162 0.14817,0.1162 v 0.032 0.032 h -0.032 -0.032 z m 8.3928,-0.23283 0.19885,-0.21167 h 0.0423 0.0423 l -0.19885,0.21167 -0.19885,0.21166 h -0.0423 -0.0423 z m -18.5982,-0.46567 v -0.635 l 0.0332,0.3175 0.0332,0.3175 -0.0332,0.3175 -0.0332,0.3175 z m 19.39983,0.0817 -0.15594,-0.17232 -0.13235,0.0503 -0.13234,0.0503 0.10699,-0.10777 0.10699,-0.10777 0.22975,0.22976 0.22976,0.22975 h -0.0485 -0.0485 z m -9.99601,-0.18751 -0.16128,-0.1905 0.1905,0.16129 0.1905,0.16128 v 0.0292 0.0292 h -0.0292 -0.0292 z m -14.9114,-0.4445 0.001,-0.42334 0.0354,0.234 0.0354,0.234 -0.0365,0.18933 -0.0365,0.18934 z m 7.68713,-1.36173 0.007,-0.16227 0.0445,0.11112 0.0445,0.11113 -0.0511,0.0512 -0.0512,0.0512 z m -8.31042,-0.26811 -0.20526,-0.23283 0.23283,0.20526 0.23283,0.20526 v 0.0276 0.0276 h -0.0276 -0.0276 z m 8.22576,-0.15522 0.007,-0.16228 0.0445,0.11113 0.0445,0.11112 -0.0512,0.0512 -0.0511,0.0511 z m -0.0847,-0.508 0.007,-0.16228 0.0445,0.11113 0.0445,0.11112 -0.0512,0.0512 -0.0511,0.0512 z m -10.31324,-0.17862 0.14978,-0.039 0.10422,0.0422 0.10422,0.0422 -0.254,-0.003 -0.254,-0.003 z m 10.24153,-0.53399 v -0.29633 l 0.0387,0.14816 0.0387,0.14817 -0.0387,0.14817 -0.0387,0.14816 z m 6.00506,-0.0847 v -0.21166 l 0.0427,0.10583 0.0427,0.10583 -0.0427,0.10584 -0.0427,0.10583 z m -9.45903,-0.1905 -0.24867,-0.27516 0.27516,0.24867 0.27517,0.24867 v 0.0265 0.0265 h -0.0265 -0.0265 z m 9.38946,-0.99483 v -0.635 l 0.0332,0.3175 0.0332,0.3175 -0.0332,0.3175 -0.0332,0.3175 z m -12.23634,-0.48117 0.11112,-0.0445 0.0512,0.0512 0.0512,0.0512 -0.16228,-0.007 -0.16228,-0.007 z m -0.2607,-0.122 0.10442,-0.10521 0.0474,0.0474 0.0474,0.0474 -0.15182,0.0578 -0.15182,0.0578 z m 12.56661,-0.58216 v -0.21167 l 0.0427,0.10583 0.0427,0.10584 -0.0427,0.10583 -0.0427,0.10583 z m -6.0082,-0.127 0.003,-0.254 0.039,0.14978 0.039,0.14977 -0.0422,0.10423 -0.0422,0.10422 z m -4.8425,-0.15897 v -0.032 l 0.14816,-0.1162 0.14817,-0.1162 -0.1162,0.14817 -0.1162,0.14817 h -0.032 -0.032 z m 0.508,-0.42333 v -0.032 l 0.14816,-0.1162 0.14817,-0.1162 -0.1162,0.14817 -0.1162,0.14816 h -0.032 -0.032 z m 4.41603,-0.13737 v -0.21167 l 0.0427,0.10584 0.0427,0.10583 -0.0427,0.10583 -0.0427,0.10584 z m -14.47159,-2.6035 -0.0198,-2.39183 1.79917,0.0194 1.79917,0.0194 -1.7555,0.0247 -1.7555,0.0247 -0.0239,2.34779 -0.0239,2.34778 z m 3.38806,2.29114 0.14816,-0.0387 0.14817,0.0387 0.14817,0.0387 h -0.29634 -0.29633 z m 7.00616,0.0264 v -0.032 l 0.14817,-0.1162 0.14817,-0.1162 -0.1162,0.14816 -0.1162,0.14817 h -0.032 -0.032 z m -4.826,-0.85703 0.28722,-0.29633 h 0.0423 0.0423 l -0.28722,0.29633 -0.28722,0.29633 h -0.0423 -0.0423 z m 0.60604,-1.22767 v -0.21166 l 0.0427,0.10583 0.0427,0.10583 -0.0427,0.10584 -0.0427,0.10583 z m 5.24265,-0.13405 0.007,-0.16228 0.0445,0.11113 0.0445,0.11112 -0.0512,0.0512 -0.0512,0.0512 z m -5.24265,-0.54328 v -0.21167 l 0.0427,0.10584 0.0427,0.10583 -0.0427,0.10583 -0.0427,0.10584 z m 15.90397,0.14284 v -0.0265 l 0.27516,-0.24868 0.27517,-0.24867 -0.24868,0.27517 -0.24867,0.27516 h -0.0265 -0.0265 z m -10.55556,-0.60851 6.9e-4,-0.59266 0.0333,0.31939 0.0333,0.31938 -0.034,0.27328 -0.034,0.27328 z m 19.4839,0.10584 -0.33468,-0.35984 0.35984,0.33469 0.35983,0.33468 v 0.0251 0.0251 h -0.0251 -0.0251 z m -19.58966,-1.21356 0.007,-0.16228 0.0445,0.11113 0.0445,0.11112 -0.0512,0.0512 -0.0512,0.0512 z m 13.86277,-0.17778 0.11113,-0.0445 0.0512,0.0512 0.0511,0.0512 -0.16227,-0.007 -0.16228,-0.007 z m -21.336,-0.0847 0.11113,-0.0445 0.0512,0.0512 0.0511,0.0512 -0.16227,-0.007 -0.16228,-0.007 z m 21.75934,0 0.11112,-0.0445 0.0512,0.0512 0.0512,0.0512 -0.16228,-0.007 -0.16228,-0.007 z m 2.286,0 0.11112,-0.0445 0.0512,0.0512 0.0512,0.0512 -0.16228,-0.007 -0.16228,-0.007 z m -1.44463,-0.0888 0.35984,-0.0324 0.35983,0.0324 0.35983,0.0324 h -0.71966 -0.71967 z m -9.88483,-0.39331 v -0.032 l 0.14817,-0.1162 0.14816,-0.1162 -0.1162,0.14816 -0.1162,0.14817 h -0.032 -0.032 z m 0.33867,-0.41786 v -0.0265 l 0.27516,-0.24867 0.27517,-0.24868 -0.24868,0.27517 -0.24867,0.27517 h -0.0265 -0.0265 z m 1.10066,-1.1165 0.19885,-0.21167 h 0.0423 0.0423 l -0.19885,0.21167 -0.19885,0.21166 h -0.0423 -0.0423 z m 16.75944,-0.10584 -0.29177,-0.3175 0.3175,0.29178 0.3175,0.29178 v 0.0257 0.0257 h -0.0257 -0.0257 z m -24.4749,0.0847 -0.11621,-0.14817 0.14817,0.1162 0.14817,0.11621 v 0.032 0.032 h -0.032 -0.032 z m 23.79133,-0.67733 -0.1162,-0.14817 0.14817,0.1162 0.14816,0.1162 v 0.032 0.032 h -0.032 -0.032 z m -24.55333,-0.0847 -0.11621,-0.14817 0.14817,0.1162 0.14817,0.11621 v 0.032 0.032 h -0.032 -0.032 z m -3.30708,-1.43367 0.11112,-0.0445 0.0512,0.0512 0.0511,0.0512 -0.16228,-0.007 -0.16228,-0.007 z m -0.508,-0.0847 0.11112,-0.0445 0.0512,0.0512 0.0512,0.0511 -0.16228,-0.007 -0.16228,-0.007 z m -0.72335,-0.0855 0.14978,-0.039 0.10422,0.0422 0.10422,0.0422 -0.254,-0.003 -0.254,-0.003 z m -8.00261,-0.0894 2.39183,-0.0239 2.39184,0.0239 2.39183,0.0239 h -4.78367 -4.78366 z m 27.26796,-0.41772 0.11113,-0.0445 0.0512,0.0512 0.0511,0.0511 -0.16228,-0.007 -0.16227,-0.007 z m 4.48733,0 0.11113,-0.0445 0.0512,0.0512 0.0512,0.0511 -0.16227,-0.007 -0.16228,-0.007 z m -3.85601,-0.0855 0.14978,-0.039 0.10422,0.0422 0.10422,0.0422 -0.254,-0.003 -0.254,-0.003 z m 3.17339,0.003 0.10583,-0.0427 0.10584,0.0427 0.10583,0.0427 H 140.97 140.75834 Z m -1.94733,-0.091 0.4445,-0.0311 0.4445,0.0311 0.4445,0.0311 h -0.889 -0.889 z"
         id="path4" /><path
         style="fill:#ffffff;fill-opacity:1"
         d="m 72.792168,160.39784 0.105833,-0.0427 0.105834,0.0427 0.105833,0.0427 h -0.211667 -0.211666 z m 1.737278,-0.003 0.149778,-0.039 0.104222,0.0422 0.104222,0.0422 -0.254,-0.003 -0.254,-0.003 z m 20.868722,-10e-4 0.1905,-0.0367 0.1905,0.0367 0.1905,0.0367 h -0.381 -0.381 z m -1.349375,-0.0828 0.111125,-0.0445 0.05115,0.0512 0.05115,0.0512 -0.162278,-0.007 -0.162278,-0.007 z m 8.186207,-2.31283 0.15325,-0.16933 h 0.0423 0.0423 l -0.15324,0.16933 -0.15325,0.16934 h -0.0423 -0.0423 z m -20.108332,-0.4553 v -0.032 l 0.148167,-0.1162 0.148166,-0.1162 -0.1162,0.14816 -0.1162,0.14817 h -0.03197 -0.03197 z m -8.990542,-2.14253 0.111125,-0.0445 0.05115,0.0512 0.05115,0.0512 -0.162278,-0.007 -0.162278,-0.007 z m 1.100667,0 0.111125,-0.0445 0.05115,0.0512 0.05115,0.0512 -0.162278,-0.007 -0.162278,-0.007 z m 23.722542,-0.22813 v -0.032 l 0.148166,-0.1162 0.148167,-0.1162 -0.1162,0.14817 -0.1162,0.14816 h -0.03197 -0.03197 z m -19.727334,-1.53437 0.198851,-0.21167 h 0.04233 0.04233 l -0.198851,0.21167 -0.19885,0.21167 h -0.04233 -0.04233 z m 26.019769,-0.80433 v -0.55034 l 0.0342,0.27517 0.0341,0.27517 -0.0341,0.27516 -0.0342,0.27517 z m -42.861751,-3.35139 0.0067,-0.16228 0.04447,0.11113 0.04447,0.11112 -0.05115,0.0512 -0.05115,0.0512 z m 24.735625,-0.54328 v -0.29633 l 0.03872,0.14816 0.03872,0.14817 -0.03872,0.14817 -0.03872,0.14816 z m -18.886941,0 v -0.21167 l 0.0427,0.10584 0.0427,0.10583 -0.0427,0.10583 -0.0427,0.10584 z m 35.370887,-0.23283 -0.20526,-0.23284 0.23284,0.20526 0.23283,0.20526 v 0.0276 0.0276 h -0.0276 -0.0276 z m -22.33222,-0.35984 v -0.21166 l 0.0427,0.10583 0.0427,0.10583 -0.0427,0.10584 -0.0427,0.10583 z m 9.46289,-0.48683 -0.205259,-0.23283 0.232834,0.20526 0.232833,0.20525 v 0.0276 0.0276 h -0.02757 -0.02757 z m -3.614616,-0.10583 v -0.29634 l 0.03872,0.14817 0.03872,0.14817 -0.03872,0.14816 -0.03872,0.14817 z m -18.886941,0 v -0.21167 l 0.0427,0.10583 0.0427,0.10584 -0.0427,0.10583 -0.0427,0.10583 z m -5.848684,-0.55739 0.0067,-0.16228 0.04447,0.11113 0.04447,0.11112 -0.05115,0.0512 -0.05115,0.0512 z m 26.775765,-3.54895 6.83e-4,-0.59266 0.03332,0.31939 0.03332,0.31938 -0.03401,0.27328 -0.03401,0.27328 z m -19.331783,-0.0743 v -0.032 l 0.148167,-0.1162 0.148167,-0.1162 -0.116201,0.14816 -0.1162,0.14817 h -0.03197 -0.03197 z m 24.823839,-0.26436 0.0031,-0.254 0.03903,0.14978 0.03903,0.14977 -0.04217,0.10423 -0.04217,0.10422 z m 7.0847,-0.52917 -0.11621,-0.14817 0.14817,0.1162 0.14817,0.1162 v 0.032 0.032 h -0.032 -0.032 z m 1.11146,-0.8255 0.19885,-0.21167 h 0.0423 0.0423 l -0.19885,0.21167 -0.19885,0.21167 h -0.0423 -0.0423 z m -5.524499,-0.94507 0.105834,-0.0427 0.105833,0.0427 0.105833,0.0427 h -0.211666 -0.211667 z m 0.851959,-0.002 0.111125,-0.0445 0.05115,0.0512 0.05115,0.0511 -0.162277,-0.007 -0.162278,-0.007 z m 6.19654,-0.66183 0.19885,-0.21166 h 0.0423 0.0423 l -0.19885,0.21166 -0.19885,0.21167 h -0.0423 -0.0423 z m -38.78087,-0.40216 0.377461,-0.40217 h 0.0247 0.0247 v 0.0247 0.0247 l -0.402166,0.37746 -0.402167,0.37746 z m 7.522996,-3.42334 0.111125,-0.0445 0.05115,0.0512 0.05115,0.0512 -0.162278,-0.007 -0.162278,-0.007 z m 3.132667,0 0.111125,-0.0445 0.05115,0.0512 0.05115,0.0512 -0.162278,-0.007 -0.162278,-0.007 z m 20.574,0 0.111125,-0.0445 0.05115,0.0512 0.05115,0.0512 -0.162278,-0.007 -0.162278,-0.007 z m -22.272625,-0.0866 0.1905,-0.0367 0.1905,0.0367 0.1905,0.0367 h -0.381 -0.381 z"
         id="path3" /><path
         style="fill:#ffffff;fill-opacity:1"
         d="m 137.92499,160.36775 -0.71667,-0.0749 -0.83954,-0.17975 -0.83954,-0.17975 -0.72979,-0.2575 -0.72978,-0.2575 -0.67733,-0.33967 -0.67734,-0.33967 -0.74784,-0.51126 -0.74783,-0.51127 -0.73383,-0.73239 -0.73383,-0.73238 -0.49016,-0.68584 -0.49016,-0.68583 -0.38015,-0.76051 -0.38016,-0.76051 -0.25154,-0.74417 -0.25154,-0.74416 -0.17283,-0.89422 -0.17284,-0.89422 -0.0512,-1.06618 -0.0512,-1.06617 0.10571,-0.96583 0.10572,-0.96582 0.23547,-0.93133 0.23547,-0.93134 0.33723,-0.779 0.33723,-0.77901 0.4054,-0.65044 0.4054,-0.65044 0.42818,-0.51788 0.42817,-0.51789 0.46895,-0.45779 0.46895,-0.45778 0.67309,-0.49613 0.6731,-0.49614 0.89324,-0.45549 0.89324,-0.45549 0.78324,-0.26117 0.78325,-0.26117 0.86775,-0.18794 0.86776,-0.18794 1.905,-0.002 1.905,-0.002 0.85547,0.18716 0.85548,0.18716 0.66852,0.21934 0.66853,0.21933 0.85228,0.41049 0.85229,0.41049 0.67171,0.50291 0.67172,0.50291 0.29366,0.30946 0.29366,0.30947 -1.8441,1.84553 -1.8441,1.84553 -0.52813,-0.51784 -0.52814,-0.51784 -0.71543,-0.35105 -0.71542,-0.35105 -0.531,-0.13471 -0.53099,-0.13472 -0.66293,-0.0511 -0.66293,-0.0511 -0.70302,0.10279 -0.70302,0.1028 -0.60073,0.21544 -0.60072,0.21544 -0.381,0.21751 -0.381,0.21751 -0.4939,0.38288 -0.4939,0.38287 -0.40499,0.51112 -0.40499,0.51113 -0.25987,0.46567 -0.25988,0.46566 -0.17193,0.46567 -0.17194,0.46567 -0.1436,0.59266 -0.1436,0.59267 0.002,1.143 0.002,1.143 0.13975,0.62259 0.13975,0.62258 0.24859,0.62084 0.24859,0.62083 0.34903,0.55264 0.34902,0.55263 0.63829,0.5961 0.63829,0.59609 0.68958,0.33885 0.68959,0.33884 0.67733,0.1735 0.67733,0.1735 0.93209,0.004 0.93209,0.004 0.59191,-0.14675 0.59191,-0.14675 0.52387,-0.23561 0.52387,-0.23561 0.40747,-0.2786 0.40746,-0.27859 0.44171,-0.45725 0.44171,-0.45724 0.2873,0.24129 0.28731,0.2413 1.62321,1.524 1.6232,1.524 -0.79729,0.762 -0.7973,0.762 -0.72704,0.45303 -0.72704,0.45304 -0.74322,0.32008 -0.74322,0.32008 -0.635,0.17653 -0.635,0.17654 -0.7391,0.12761 -0.73911,0.12762 -1.12356,0.0389 -1.12356,0.0389 z M 107.442,148.42618 v -11.3504 l 5.43983,0.0325 5.43984,0.0325 0.8409,0.18915 0.84089,0.18916 0.653,0.25182 0.653,0.25183 0.53684,0.34697 0.53685,0.34698 0.48594,0.5044 0.48595,0.50439 0.29264,0.58495 0.29264,0.58495 0.14397,0.64715 0.14398,0.64715 -0.0453,0.98299 -0.0453,0.98298 -0.17586,0.4954 -0.17585,0.49539 -0.18552,0.30894 -0.18553,0.30894 -0.36949,0.44043 -0.36949,0.44042 -0.62406,0.4174 -0.62407,0.4174 -0.41003,0.151 -0.41004,0.15101 -0.0673,0.0576 -0.0673,0.0576 0.57532,0.13958 0.57533,0.13957 0.7103,0.34915 0.71031,0.34916 0.61025,0.60388 0.61026,0.60388 0.308,0.635 0.308,0.635 0.12827,0.50462 0.12827,0.50462 v 0.85567 0.85566 l -0.0924,0.50238 -0.0923,0.50238 -0.24604,0.635 -0.24604,0.635 -0.43342,0.57559 -0.43341,0.5756 -0.51936,0.42472 -0.51936,0.42472 -0.84667,0.41187 -0.84666,0.41187 -0.63813,0.17468 -0.63813,0.17468 -0.84354,0.12714 -0.84354,0.12714 -5.22816,4.9e-4 -5.22817,5e-4 z m 9.97217,6.82551 0.53183,-0.13105 0.33982,-0.17336 0.33981,-0.17336 0.3267,-0.29515 0.32669,-0.29515 0.17326,-0.36859 0.17326,-0.36859 0.0556,-0.41885 0.0556,-0.41884 -0.0984,-0.47389 -0.0984,-0.47389 -0.24807,-0.34246 -0.24807,-0.34245 -0.44571,-0.25499 -0.44572,-0.255 -0.635,-0.14254 -0.635,-0.14253 -2.07433,-0.007 -2.07433,-0.007 -0.0225,2.53907 -0.0225,2.53908 0.0457,0.11901 0.0457,0.11902 2.05112,-0.0502 2.05111,-0.0502 z m -0.50647,-9.23469 0.53336,-0.12574 0.25486,-0.1318 0.25486,-0.13179 0.32999,-0.29812 0.32999,-0.29813 0.17295,-0.46226 0.17296,-0.46226 -4.7e-4,-0.39899 -4.8e-4,-0.39899 -0.0898,-0.3235 -0.0898,-0.32349 -0.29609,-0.32772 -0.29608,-0.32773 -0.37402,-0.18106 -0.37402,-0.18106 -0.65776,-0.11727 -0.65777,-0.11726 -1.7145,-0.003 -1.7145,-0.003 v 2.37066 2.37067 l 1.8415,-0.001 1.8415,-0.001 z"
         id="path2" /><path
         style="fill:#ffffff;fill-opacity:1"
         d="m 72.347668,160.35956 -0.762,-0.0715 -0.836549,-0.17737 -0.836549,-0.17737 -0.729785,-0.25561 -0.729784,-0.25561 -0.897321,-0.464 -0.897322,-0.464 -0.719152,-0.53973 -0.719152,-0.53973 -0.669527,-0.70809 -0.669526,-0.70809 -0.422885,-0.62979 -0.422885,-0.62978 -0.356753,-0.70887 -0.356752,-0.70886 -0.258874,-0.77705 -0.258875,-0.77705 -0.171639,-0.88475 -0.171639,-0.88476 -0.04977,-1.05833 -0.04977,-1.05833 0.09581,-0.87168 0.09581,-0.87168 0.130673,-0.63263 0.130672,-0.63262 0.219809,-0.6547 0.219808,-0.65469 0.280849,-0.61648 0.280848,-0.61647 0.479555,-0.73819 0.479555,-0.7382 0.899892,-0.89989 0.899892,-0.89989 0.719666,-0.46574 0.719667,-0.46575 0.621442,-0.31142 0.621442,-0.31143 0.860225,-0.28665 0.860224,-0.28664 0.889,-0.19129 0.889,-0.19129 1.947334,-0.004 1.947333,-0.004 0.959062,0.19416 0.959062,0.19416 0.776605,0.25909 0.776604,0.25909 0.691699,0.32893 0.691698,0.32892 0.75897,0.50767 0.75897,0.50766 0.646928,0.60416 0.646928,0.60416 0.535269,0.71321 0.535269,0.7132 0.390384,0.74041 0.390383,0.7404 0.294157,0.88557 0.294158,0.88557 0.13563,0.66649 0.13563,0.66649 0.07634,1.00568 0.07634,1.00567 -0.07634,1.00568 -0.07634,1.00568 -0.13563,0.66649 -0.13563,0.66649 -0.285677,0.86022 -0.285677,0.86023 -0.312089,0.62144 -0.312088,0.62144 -0.518032,0.762 -0.518032,0.762 -0.776056,0.77367 -0.776056,0.77366 -0.837618,0.55763 -0.837617,0.55762 -0.714935,0.33184 -0.714936,0.33183 -0.644616,0.2136 -0.644616,0.21359 -0.810511,0.1756 -0.810512,0.17561 -0.957872,0.0848 -0.957873,0.0848 -0.465666,-0.0107 -0.465667,-0.0107 z m 3.089049,-5.11396 0.54905,-0.13299 0.599117,-0.28817 0.599117,-0.28816 0.502833,-0.38539 0.502834,-0.38539 0.450816,-0.52929 0.450816,-0.52929 0.412382,-0.84667 0.412382,-0.84667 0.136785,-0.54009 0.136785,-0.5401 0.06742,-0.79903 0.06742,-0.79903 -0.07099,-0.76935 -0.07099,-0.76935 -0.174872,-0.63741 -0.174873,-0.63742 -0.386303,-0.74795 -0.386302,-0.74796 -0.581041,-0.62217 -0.581041,-0.62217 -0.536324,-0.34943 -0.536325,-0.34943 -0.530329,-0.21549 -0.530329,-0.21549 -0.650206,-0.13449 -0.650206,-0.13449 -1.016,0.047 -1.016,0.047 -0.506498,0.14069 -0.506498,0.14068 -0.621732,0.30743 -0.621732,0.30742 -0.547873,0.45191 -0.547872,0.45191 -0.388756,0.52406 -0.388756,0.52406 -0.326115,0.67733 -0.326116,0.67733 -0.182991,0.67734 -0.182991,0.67733 -3.18e-4,1.31233 -3.17e-4,1.31234 0.219046,0.82211 0.219045,0.82211 0.394084,0.76302 0.394083,0.76301 0.547948,0.59184 0.547949,0.59183 0.578316,0.38447 0.578316,0.38446 0.580889,0.22096 0.580889,0.22096 0.592666,0.11565 0.592667,0.11565 0.889,-0.0382 0.889,-0.0382 z m 18.088422,4.99043 -0.751196,-0.11681 -0.806978,-0.21985 -0.806977,-0.21984 -0.748924,-0.32288 -0.748923,-0.32288 -0.622467,-0.35615 -0.622467,-0.35615 -0.620181,-0.52128 -0.62018,-0.52127 -0.03684,-0.11294 -0.03684,-0.11293 1.759897,-1.76719 1.759898,-1.76718 0.571319,0.53895 0.57132,0.53896 0.600959,0.35702 0.600959,0.35702 0.73908,0.257 0.73908,0.25701 0.890058,0.0387 0.890058,0.0387 0.546459,-0.14 0.546459,-0.13999 0.387104,-0.24841 0.387104,-0.2484 0.192083,-0.25981 0.192082,-0.2598 0.12213,-0.34615 0.12213,-0.34616 v -0.42403 -0.42403 l -0.10349,-0.34849 -0.10349,-0.34849 -0.392007,-0.39369 -0.392006,-0.3937 -0.711004,-0.34181 -0.711003,-0.3418 -1.525061,-0.50251 -1.52506,-0.50252 -0.676273,-0.27694 -0.676273,-0.27695 -0.677333,-0.39004 -0.677334,-0.39004 -0.684792,-0.67733 -0.684792,-0.67734 -0.345905,-0.69537 -0.345904,-0.69538 -0.143876,-0.6467 -0.143876,-0.64669 0.03959,-1.19793 0.03959,-1.19793 0.229705,-0.67733 0.229706,-0.67733 0.336326,-0.56943 0.336327,-0.56943 0.473904,-0.51187 0.473905,-0.51188 0.709025,-0.47177 0.709026,-0.47177 0.656019,-0.27646 0.656019,-0.27646 0.465667,-0.13369 0.465667,-0.13369 0.762,-0.15013 0.762,-0.15012 1.397,0.002 1.397,0.002 0.862618,0.1862 0.86262,0.1862 0.74605,0.26319 0.74605,0.2632 0.59266,0.29831 0.59267,0.29831 0.59267,0.40595 0.59266,0.40595 0.25227,0.20793 0.25227,0.20793 -1.26827,1.33259 -1.26827,1.3326 -0.45182,0.49739 -0.45182,0.49738 -0.52184,-0.4695 -0.521852,-0.46949 -0.762,-0.37928 -0.762,-0.37928 -0.592666,-0.12366 -0.592667,-0.12367 h -0.423333 -0.423334 l -0.56143,0.11901 -0.561431,0.119 -0.412236,0.2103 -0.412236,0.2103 -0.228342,0.24073 -0.228342,0.24072 -0.144655,0.33867 -0.144656,0.33867 -0.0012,0.508 -0.0012,0.508 0.180521,0.35018 0.18052,0.35018 0.320703,0.25239 0.320703,0.25238 0.352185,0.17842 0.352184,0.17842 2.013091,0.68624 2.013092,0.68624 0.773141,0.36129 0.77314,0.36129 0.63566,0.42894 0.63565,0.42893 0.55439,0.59879 0.55438,0.59878 0.30347,0.6151 0.30347,0.61509 0.12932,0.55034 0.12933,0.55033 0.001,0.9984 0.001,0.99841 -0.13423,0.65259 -0.13422,0.6526 -0.23413,0.60459 -0.23413,0.60459 -0.39613,0.59587 -0.39613,0.59586 -0.6216,0.57755 -0.62161,0.57754 -0.47077,0.28198 -0.47078,0.28199 -0.66197,0.28475 -0.66197,0.28475 -0.677333,0.17282 -0.677333,0.17283 -0.592667,0.0843 -0.592667,0.0843 -1.185333,-0.007 -1.185333,-0.007 z"
         id="path1" /></g></g></svg>
